# xmcd
#
# Track frame offsets: 
#        183
#        13118
#        24633
#        41810
#        55215
#        75403
#        90305
#        104343
#        116833
#        128448
#        140850
#        153143
#        164233
#        176780
#        188718
#        203218
#        216695
#        232820
#        250873
#        263313
#        276480
#
# Disc length: 3836 seconds
#
# Revision: 3
# Processed by: cddbd v1.5.2PL0 Copyright (c) Steve Scherf et al.
# Submitted via: ExactAudioCopyFreeDBPlugin 1.0
#
DISCID=2a0efa15
DTITLE=Various Artist - Country Collection CD1
DYEAR=1994
DGENRE=Country
TTITLE0=Kenny Rogers - Ruby, Don't Take Your Love To Town
TTITLE1=Freddy Fender - Before The Next Teardrop Falls
TTITLE2=John Denver - Calypso
TTITLE3=Lynn Anderson - Rose Garden
TTITLE4=James Taylor - You've Got A Friend
TTITLE5=Olivia Newton-John - Take Me Home Country Roads
TTITLE6=Elvis Costello - A Good Year For The Roses
TTITLE7=The Bellamy Brothers - Let Your Love Flow
TTITLE8=Crystal Gayle - Don't It Make My Brown Eyes Blue
TTITLE9=Johnny Cash - Folsom Prison Blues
TTITLE10=Patsy Cline - Crazy
TTITLE11=Roger Miller - King Of The Road
TTITLE12=Nancy Sinatra and Lee Hazlewood - Jackson
TTITLE13=Telly Savalas - Some Broken Hearts Never Mend
TTITLE14=Live-Glen Campbell - Rhinestone Cowboy
TTITLE15=B.J. Thomas - I Just Can't Help Believin'
TTITLE16=Billie Jo Spears - Blanket On The Ground
TTITLE17=Rick Nelson - Garden Party
TTITLE18=Dolly Parton - Making Believe
TTITLE19=Ray Charles - Crying Time
TTITLE20=Jim Croce - I'll Have To Say I Love You In A Song
EXTD=Arcade -1994\\r\n\\r
EXTT0=
EXTT1=
EXTT2=
EXTT3=
EXTT4=
EXTT5=
EXTT6=
EXTT7=
EXTT8=
EXTT9=
EXTT10=
EXTT11=
EXTT12=
EXTT13=
EXTT14=
EXTT15=
EXTT16=
EXTT17=
EXTT18=
EXTT19=
EXTT20=
PLAYORDER=
